#N canvas 818 254 668 677 10;
#X text -560 193 stop do zatzymania delaya w momncie nacisniecia drugiej
nuty;
#X obj -577 603 line~;
#X obj -577 160 bng 15 250 50 0 empty empty empty 17 7 0 10 -262144
-1 -1;
#X floatatom -385 160 5 0 0 0 - - -;
#X obj -385 446 pack f f;
#X obj -385 489 print;
#X msg -577 259 0;
#X obj -577 450 pack f f;
#X obj -146 586 pack f f;
#X obj -321 248 delay;
#X obj -131 176 *;
#X obj -146 535 f;
#X obj -321 224 bng 15 250 50 0 empty empty empty 17 7 0 10 -262144
-1 -1;
#X obj -169 521 bng 15 250 50 0 empty empty empty 17 7 0 10 -262144
-1 -1;
#X text -280 504 pamiec f przchowujaca wartosc jest wyzwalana bangiem
z opoznienim delay;
#X text -296 215 bang przy uruchomieniu delay (niepotrzebny tylko do
sprawdzenia);
#X msg -554 175 stop;
#X obj -502 42 inlet;
#X obj -577 648 outlet~;
#X obj -93 159 r s;
#X obj -76 569 r d;
#X obj -340 279 r a;
#X obj -510 433 r r;
#X obj -502 77 sel 0;
#X connect 1 0 18 0;
#X connect 2 0 6 0;
#X connect 2 0 16 0;
#X connect 3 0 4 0;
#X connect 3 0 10 0;
#X connect 3 0 12 0;
#X connect 4 0 1 0;
#X connect 4 0 5 0;
#X connect 6 0 7 0;
#X connect 7 0 1 0;
#X connect 8 0 1 0;
#X connect 9 0 13 0;
#X connect 10 0 11 1;
#X connect 11 0 8 0;
#X connect 12 0 9 0;
#X connect 13 0 11 0;
#X connect 16 0 9 0;
#X connect 17 0 23 0;
#X connect 19 0 10 1;
#X connect 20 0 8 1;
#X connect 21 0 9 1;
#X connect 21 0 4 1;
#X connect 22 0 7 1;
#X connect 23 0 2 0;
#X connect 23 1 3 0;
