#N canvas 1147 229 664 714 10;
#X text -581 193 stop do zatzymania delaya w momncie nacisniecia drugiej
nuty;
#X obj -603 603 line~;
#X obj -603 160 bng 15 250 50 0 empty empty empty 17 7 0 10 -262144
-1 -1;
#X floatatom -411 160 5 0 0 0 - - -;
#X obj -411 446 pack f f;
#X obj -411 487 print;
#X msg -603 259 0;
#X obj -603 450 pack f f;
#X obj -170 586 pack f f;
#X obj -347 248 delay;
#X obj -157 176 *;
#X obj -170 526 f;
#X obj -347 222 bng 15 250 50 0 empty empty empty 17 7 0 10 -262144
-1 -1;
#X obj -195 511 bng 15 250 50 0 empty empty empty 17 7 0 10 -262144
-1 -1;
#X text -305 494 pamiec f przchowujaca wartosc jest wyzwalana bangiem
z opoznienim delay;
#X text -317 216 bang przy uruchomieniu delay (niepotrzebny tylko do
sprawdzenia);
#X msg -579 175 stop;
#X obj -539 433 r rn;
#X obj -114 159 r sn;
#X obj -366 287 r an;
#X obj -101 569 r dn;
#X obj -518 47 inlet;
#X obj -603 647 outlet~;
#X obj -518 78 sel 0;
#X connect 1 0 22 0;
#X connect 2 0 6 0;
#X connect 2 0 16 0;
#X connect 3 0 4 0;
#X connect 3 0 10 0;
#X connect 3 0 12 0;
#X connect 4 0 1 0;
#X connect 4 0 5 0;
#X connect 6 0 7 0;
#X connect 7 0 1 0;
#X connect 8 0 1 0;
#X connect 9 0 13 0;
#X connect 10 0 11 1;
#X connect 11 0 8 0;
#X connect 12 0 9 0;
#X connect 13 0 11 0;
#X connect 16 0 9 0;
#X connect 17 0 7 1;
#X connect 18 0 10 1;
#X connect 19 0 9 1;
#X connect 19 0 4 1;
#X connect 20 0 8 1;
#X connect 21 0 23 0;
#X connect 23 0 2 0;
#X connect 23 1 3 0;
