#N canvas 670 58 488 639 10;
#X obj -802 -188 inlet;
#X obj -870 -55 mtof;
#X obj -864 187 *~;
#X obj -716 389 outlet~;
#X obj -802 -117 unpack 0 0;
#X obj -697 -90 / 127;
#X floatatom -909 -38 5 0 0 0 - - -;
#X floatatom -802 -77 5 0 0 0 - - -;
#X floatatom -745 -76 5 0 0 0 - - -;
#X obj -705 90 *~;
#X obj -834 159 adsr;
#X obj -679 64 adsrn;
#X obj -881 92 +~;
#X obj -881 139 lfo1;
#X obj -870 1 lfo2;
#X obj -715 318 vcf~;
#N canvas 953 455 222 329 cfreq 0;
#X obj 46 16 inlet;
#X obj 33 282 outlet~;
#X obj 46 87 f;
#X obj 46 122 t b f;
#X msg 46 48 bang;
#X obj 98 70 r f1;
#X obj 85 165 pack 0 0 0;
#X obj 113 126 r f2;
#X obj 142 103 r t;
#X obj 34 246 line~;
#X obj 85 208 route 0;
#X connect 0 0 4 0;
#X connect 2 0 3 0;
#X connect 3 0 6 0;
#X connect 3 1 9 0;
#X connect 4 0 2 0;
#X connect 5 0 2 1;
#X connect 6 0 10 0;
#X connect 7 0 6 1;
#X connect 8 0 6 2;
#X connect 9 0 1 0;
#X connect 10 0 9 0;
#X restore -705 280 pd cfreq;
#X obj -516 -100 sel 0;
#X obj -667 301 r q;
#X obj -814 261 +~;
#X obj -731 43 noise;
#X obj -911 48 squares;
#X obj -838 45 phasors;
#X connect 0 0 4 0;
#X connect 1 0 6 0;
#X connect 1 0 14 0;
#X connect 2 0 19 0;
#X connect 4 0 1 0;
#X connect 4 0 7 0;
#X connect 4 1 8 0;
#X connect 4 1 17 0;
#X connect 4 1 5 0;
#X connect 5 0 11 0;
#X connect 5 0 10 0;
#X connect 9 0 19 1;
#X connect 10 0 2 1;
#X connect 11 0 9 1;
#X connect 12 0 13 0;
#X connect 13 0 2 0;
#X connect 14 0 21 0;
#X connect 14 0 22 0;
#X connect 15 0 3 0;
#X connect 16 0 15 1;
#X connect 17 1 16 0;
#X connect 18 0 15 2;
#X connect 19 0 15 0;
#X connect 20 0 9 0;
#X connect 21 0 12 0;
#X connect 22 0 12 1;
