#N canvas 1024 463 211 307 10;
#X obj -710 66 *~;
#X obj -672 18 +~;
#X obj -639 -21 *~;
#X obj -701 -89 expr 1-$f1;
#X obj -701 -23 sig~;
#X obj -667 -63 osc~ 6;
#X obj -668 -146 r lfo1;
#X obj -740 -146 inlet~;
#X obj -710 118 outlet~;
#X obj -605 -63 sig~;
#X connect 0 0 8 0;
#X connect 1 0 0 1;
#X connect 2 0 1 1;
#X connect 3 0 4 0;
#X connect 4 0 1 0;
#X connect 5 0 2 0;
#X connect 6 0 3 0;
#X connect 6 0 9 0;
#X connect 7 0 0 0;
#X connect 9 0 2 1;
