#N canvas 946 342 270 327 10;
#X obj 17 -78 osc~ 6;
#X obj 53 -44 *~;
#X obj 114 2 +~;
#X obj 94 -151 r lfo2;
#X obj 114 86 outlet~;
#X obj 151 -152 inlet;
#X obj 119 -115 *;
#X obj 82 -80 sig~;
#X obj 193 -79 sig~;
#X connect 0 0 1 0;
#X connect 1 0 2 0;
#X connect 2 0 4 0;
#X connect 3 0 6 0;
#X connect 5 0 6 1;
#X connect 5 0 8 0;
#X connect 6 0 7 0;
#X connect 7 0 1 1;
#X connect 8 0 2 1;
