#N canvas 1060 378 185 247 10;
#X obj -35 141 outlet~;
#X obj -36 -53 noise~;
#X obj -34 90 lop~;
#X obj -35 -3 *~ 0;
#X obj 19 -20 r vn;
#X obj 18 73 r fn;
#X obj -34 40 *~ 0.33;
#X connect 1 0 3 0;
#X connect 2 0 0 0;
#X connect 3 0 6 0;
#X connect 4 0 3 1;
#X connect 5 0 2 1;
#X connect 6 0 2 0;
