#N canvas 936 389 178 353 10;
#X obj -695 59 phasor~;
#X obj -695 96 *~ 0;
#X obj -695 213 lop~;
#X obj -648 196 r fp;
#X obj -644 79 r vp;
#X obj -695 145 *~ 0.33;
#X obj -695 3 inlet~;
#X obj -696 259 outlet~;
#X connect 0 0 1 0;
#X connect 1 0 5 0;
#X connect 2 0 7 0;
#X connect 3 0 2 1;
#X connect 4 0 1 1;
#X connect 5 0 2 0;
#X connect 6 0 0 0;
