#N canvas 973 290 170 421 10;
#X obj -837 10 inlet~;
#X obj -841 381 outlet~;
#X obj -839 220 *~ 0;
#X obj -842 340 lop~;
#X obj -790 203 r vs;
#X obj -780 323 r fs;
#X obj -837 45 phasor~;
#X obj -838 79 expr~ $v1>0.5;
#X obj -839 135 *~ 2;
#X obj -839 167 -~ 1;
#X obj -840 286 *~ 0.33;
#X connect 0 0 6 0;
#X connect 2 0 10 0;
#X connect 3 0 1 0;
#X connect 4 0 2 1;
#X connect 5 0 3 1;
#X connect 6 0 7 0;
#X connect 7 0 8 0;
#X connect 8 0 9 0;
#X connect 9 0 2 0;
#X connect 10 0 3 0;
